<svg width="218" height="129" viewBox="0 0 218 129" fill="none" xmlns="http://www.w3.org/2000/svg">
<ellipse cx="109" cy="64.1414" rx="104" ry="55" transform="rotate(-5.16628 109 64.1414)" fill="#85BCBD"/>
<path d="M101.832 71.7628V75.8935" stroke="#D9D9D9" stroke-width="4.13084" stroke-linecap="round" stroke-linejoin="round"/>
<path d="M120.42 56.2722V74.8609" stroke="#D9D9D9" stroke-width="4.13084" stroke-linecap="round" stroke-linejoin="round"/>
<path d="M89.4392 70.73H114.224" stroke="#D9D9D9" stroke-width="4.13084" stroke-linecap="round" stroke-linejoin="round"/>
<path fill-rule="evenodd" clip-rule="evenodd" d="M46.0654 72.7955C44.9247 72.7955 44 73.7203 44 74.8609C44 76.0016 44.9247 76.9263 46.0654 76.9263H61.556V82.0899C61.556 83.2306 62.4807 84.1554 63.6214 84.1554C64.7621 84.1554 65.6869 83.2306 65.6869 82.0899V76.9263H81.1774C82.3183 76.9263 83.2429 76.0016 83.2429 74.8609C83.2429 73.7203 82.3183 72.7955 81.1774 72.7955H63.6214H46.0654Z" fill="#D9D9D9"/>
<path fill-rule="evenodd" clip-rule="evenodd" d="M65.6872 54.2068C65.6872 53.0661 64.7625 52.1414 63.6218 52.1414C62.4811 52.1414 61.5564 53.0661 61.5564 54.2068C61.5564 54.2865 61.5175 54.6124 61.2987 55.2001C61.0929 55.7535 60.767 56.4334 60.3088 57.1857C59.3918 58.691 57.9988 60.3975 56.1353 61.8883C52.3541 64.9133 47.5512 66.3232 45.7262 66.6274C44.601 66.8149 43.8409 67.8791 44.0284 69.0042C44.216 70.1294 45.2801 70.8895 46.4053 70.702C48.7111 70.3177 54.2353 68.6983 58.7158 65.114C60.6544 63.563 62.182 61.8175 63.3021 60.1654C64.2209 61.8355 65.5688 63.573 67.495 65.114C71.9754 68.6983 77.4997 70.3177 79.8054 70.702C80.9307 70.8895 81.9949 70.1294 82.1823 69.0042C82.37 67.8791 81.6099 66.8149 80.4846 66.6274C78.6595 66.3232 73.8567 64.9133 70.0756 61.8883C66.4802 59.0121 65.6872 55.3613 65.6872 54.2068Z" fill="#D9D9D9"/>
<path fill-rule="evenodd" clip-rule="evenodd" d="M103.057 55.4741C103.057 54.3334 102.132 53.4087 100.992 53.4087C99.8509 53.4087 98.9261 54.3334 98.9261 55.4741C98.9261 55.4697 98.9261 55.4708 98.9252 55.4777C98.921 55.5095 98.9011 55.6633 98.8075 55.9528C98.7032 56.2759 98.5339 56.6842 98.2911 57.143C97.804 58.0639 97.0667 59.1003 96.0931 59.9968C94.1057 61.8271 91.5702 62.6751 90.6879 62.8443C89.5676 63.0593 88.8336 64.1416 89.0486 65.2619C89.2635 66.3822 90.3458 67.1161 91.4661 66.9012C92.9167 66.6229 96.2133 65.5017 98.8915 63.0354C99.605 62.3784 100.223 61.6736 100.747 60.9667C101.217 61.6773 101.797 62.3803 102.508 63.0354C105.186 65.5017 108.483 66.6229 109.934 66.9012C111.054 67.1161 112.136 66.3822 112.351 65.2619C112.566 64.1416 111.832 63.0593 110.712 62.8443C109.83 62.6751 107.294 61.8271 105.307 59.9968C103.492 58.3255 103.065 56.1697 103.057 55.4939C103.057 55.4873 103.057 55.4807 103.057 55.4741Z" fill="#D9D9D9"/>
<path d="M46.0652 91.3843V83.1226H81.1773V91.3843H46.0652Z" stroke="#D9D9D9" stroke-width="4.13084" stroke-linecap="round" stroke-linejoin="round"/>
<path d="M120.42 91.3844H93.5698V85.7515H120.42V81.0574H93.5698" stroke="#D9D9D9" stroke-width="4.13084" stroke-linecap="round" stroke-linejoin="round"/>
<path d="M130.748 60.4032H146.238V72.7957H130.748V85.1881H146.238" stroke="#D9D9D9" stroke-width="4.13084" stroke-linecap="round" stroke-linejoin="round"/>
<path d="M154.5 56.2722V92.417" stroke="#D9D9D9" stroke-width="4.13084" stroke-linecap="round" stroke-linejoin="round"/>
<path d="M155.533 73.8284H161.729" stroke="#D9D9D9" stroke-width="4.13084" stroke-linecap="round" stroke-linejoin="round"/>
<path d="M163.794 56.2722V92.417" stroke="#D9D9D9" stroke-width="4.13084" stroke-linecap="round" stroke-linejoin="round"/>
<path d="M176.712 56.9509V82.1204" stroke="#D9D9D9" stroke-width="4.13084" stroke-linecap="round" stroke-linejoin="round"/>
<path d="M176.712 91.2729V88.9847" stroke="#D9D9D9" stroke-width="4.57627" stroke-linecap="round" stroke-linejoin="round"/>
<path d="M100.832 70.7628V74.8935" stroke="white" stroke-width="4.13084" stroke-linecap="round" stroke-linejoin="round"/>
<path d="M119.42 55.2722V73.8609" stroke="white" stroke-width="4.13084" stroke-linecap="round" stroke-linejoin="round"/>
<path d="M88.4392 69.73H113.224" stroke="white" stroke-width="4.13084" stroke-linecap="round" stroke-linejoin="round"/>
<path fill-rule="evenodd" clip-rule="evenodd" d="M45.0654 71.7955C43.9247 71.7955 43 72.7203 43 73.8609C43 75.0016 43.9247 75.9263 45.0654 75.9263H60.556V81.0899C60.556 82.2306 61.4807 83.1554 62.6214 83.1554C63.7621 83.1554 64.6869 82.2306 64.6869 81.0899V75.9263H80.1774C81.3183 75.9263 82.2429 75.0016 82.2429 73.8609C82.2429 72.7203 81.3183 71.7955 80.1774 71.7955H62.6214H45.0654Z" fill="white"/>
<path fill-rule="evenodd" clip-rule="evenodd" d="M64.6872 53.2068C64.6872 52.0661 63.7625 51.1414 62.6218 51.1414C61.4811 51.1414 60.5564 52.0661 60.5564 53.2068C60.5564 53.2865 60.5175 53.6124 60.2987 54.2001C60.0929 54.7535 59.767 55.4334 59.3088 56.1857C58.3918 57.691 56.9988 59.3975 55.1353 60.8883C51.3541 63.9133 46.5512 65.3232 44.7262 65.6274C43.601 65.8149 42.8409 66.8791 43.0284 68.0042C43.216 69.1294 44.2801 69.8895 45.4053 69.702C47.7111 69.3177 53.2353 67.6983 57.7158 64.114C59.6544 62.563 61.182 60.8175 62.3021 59.1654C63.2209 60.8355 64.5688 62.573 66.495 64.114C70.9754 67.6983 76.4997 69.3177 78.8054 69.702C79.9307 69.8895 80.9949 69.1294 81.1823 68.0042C81.37 66.8791 80.6099 65.8149 79.4846 65.6274C77.6595 65.3232 72.8567 63.9133 69.0756 60.8883C65.4802 58.0121 64.6872 54.3613 64.6872 53.2068Z" fill="white"/>
<path fill-rule="evenodd" clip-rule="evenodd" d="M102.057 54.4741C102.057 53.3334 101.132 52.4087 99.9916 52.4087C98.8509 52.4087 97.9261 53.3334 97.9261 54.4741C97.9261 54.4697 97.9261 54.4708 97.9252 54.4777C97.921 54.5095 97.9011 54.6633 97.8075 54.9528C97.7032 55.2759 97.5339 55.6842 97.2911 56.143C96.804 57.0639 96.0667 58.1003 95.0931 58.9968C93.1057 60.8271 90.5702 61.6751 89.6879 61.8443C88.5676 62.0593 87.8336 63.1416 88.0486 64.2619C88.2635 65.3822 89.3458 66.1161 90.4661 65.9012C91.9167 65.6229 95.2133 64.5017 97.8915 62.0354C98.605 61.3784 99.2228 60.6736 99.7472 59.9667C100.217 60.6773 100.797 61.3803 101.508 62.0354C104.186 64.5017 107.483 65.6229 108.934 65.9012C110.054 66.1161 111.136 65.3822 111.351 64.2619C111.566 63.1416 110.832 62.0593 109.712 61.8443C108.83 61.6751 106.294 60.8271 104.307 58.9968C102.492 57.3255 102.065 55.1697 102.057 54.4939C102.057 54.4873 102.057 54.4807 102.057 54.4741Z" fill="white"/>
<path d="M45.0652 90.3843V82.1226H80.1773V90.3843H45.0652Z" stroke="white" stroke-width="4.13084" stroke-linecap="round" stroke-linejoin="round"/>
<path d="M119.42 90.3844H92.5698V84.7515H119.42V80.0574H92.5698" stroke="white" stroke-width="4.13084" stroke-linecap="round" stroke-linejoin="round"/>
<path d="M129.748 59.4032H145.238V71.7957H129.748V84.1881H145.238" stroke="white" stroke-width="4.13084" stroke-linecap="round" stroke-linejoin="round"/>
<path d="M153.5 55.2722V91.417" stroke="white" stroke-width="4.13084" stroke-linecap="round" stroke-linejoin="round"/>
<path d="M154.533 72.8284H160.729" stroke="white" stroke-width="4.13084" stroke-linecap="round" stroke-linejoin="round"/>
<path d="M162.794 55.2722V91.417" stroke="white" stroke-width="4.13084" stroke-linecap="round" stroke-linejoin="round"/>
<path d="M175.712 55.9509V81.1204" stroke="white" stroke-width="4.13084" stroke-linecap="round" stroke-linejoin="round"/>
<path d="M175.712 90.2729V87.9847" stroke="white" stroke-width="4.57627" stroke-linecap="round" stroke-linejoin="round"/>
<path d="M58.5625 35.0632V36.0945H56.3125V43.407H55.0938V29.5164H56.3125V35.0632H58.5625ZM46.1406 39.8757V30.8914H47.3594V38.8445C49.3906 38.8445 51.4609 38.6882 53.75 38.2039L53.9062 39.2507C51.5078 39.7351 49.3516 39.8757 47.25 39.8757H46.1406ZM66.4062 30.782V37.1726H59.9844V30.782H66.4062ZM61.1875 36.1882H65.2188V31.782H61.1875V36.1882ZM61.5625 43.1101V38.7351H62.7656V42.0789H70.8906V43.1101H61.5625ZM69.0312 39.7039V29.5164H70.25V33.7507H72.3438V34.782H70.25V39.7039H69.0312ZM77.7656 30.532C79.9453 30.5398 81.4922 31.8679 81.5 33.7976C81.4922 35.7351 79.9453 37.0554 77.7656 37.0632C75.5703 37.0554 74.0078 35.7351 74.0156 33.7976C74.0078 31.8679 75.5703 30.5398 77.7656 30.532ZM73.2969 39.3289C75.8594 39.3367 79.3984 39.3132 82.4688 38.8601L82.5625 39.7664C79.3828 40.3601 75.9688 40.3757 73.4688 40.3757L73.2969 39.3289ZM75.2188 33.7976C75.2109 35.0945 76.2812 35.9851 77.7656 35.9851C79.2344 35.9851 80.3047 35.0945 80.2969 33.7976C80.3047 32.5085 79.2344 31.6101 77.7656 31.6101C76.2812 31.6101 75.2109 32.5085 75.2188 33.7976ZM83.3906 43.4382V29.5164H84.6094V43.4382H83.3906ZM102.109 30.2664V31.2976C102.109 32.3757 102.109 33.6414 101.742 35.3757H103.781V36.3914H91.0625V35.3757H100.508C100.898 33.6257 100.898 32.3757 100.891 31.2976V31.282H92.6719V30.2664H102.109ZM92.625 43.2195V38.3132H102.172V43.2195H92.625ZM93.8438 42.2195H100.953V39.282H93.8438V42.2195ZM116.406 29.532V39.7976H115.172V36.0476H111.578C110.938 36.8679 109.906 37.3601 108.719 37.3601C106.641 37.3601 105.102 35.9226 105.109 33.8914C105.102 31.8523 106.641 30.4148 108.719 30.407C109.898 30.4148 110.914 30.8992 111.562 31.7039H115.172V29.532H116.406ZM106.281 33.8914C106.281 35.282 107.297 36.2742 108.719 36.2664C110.086 36.2742 111.125 35.282 111.125 33.8914C111.125 32.5085 110.086 31.5085 108.719 31.5007C107.297 31.5085 106.281 32.5085 106.281 33.8914ZM107.484 43.1101V38.7195H108.719V42.0789H116.797V43.1101H107.484ZM112.117 32.7195C112.242 33.0789 112.312 33.4695 112.312 33.8914C112.312 34.2976 112.242 34.6804 112.125 35.032H115.172V32.7195H112.117ZM135.453 40.5789V41.6257H122.734V40.5789H135.453ZM123.859 31.9382V30.9226H134.234V31.9382H132.031V36.7976H134.203V37.7976H123.891V36.7976H126.062V31.9382H123.859ZM127.281 36.7976H130.828V31.9382H127.281V36.7976ZM149.281 40.657V41.6882H136.562V40.657H142.281V38.032H138.156V33.7507H146.469V31.5632H138.125V30.5476H147.672V34.7507H139.375V37.0164H148V38.032H143.484V40.657H149.281ZM159.484 29.8289V37.8914H158.297V34.1257H156.172V33.1101H158.297V29.8289H159.484ZM150.453 36.7039C152.258 35.946 153.32 34.1492 153.312 32.5007V31.6726H150.719V30.657H156.953V31.6726H154.5V32.5007C154.5 34.0085 155.516 35.657 157.281 36.3914L156.641 37.3289C155.336 36.782 154.422 35.7429 153.938 34.5476C153.453 35.8992 152.492 37.0632 151.109 37.6726L150.453 36.7039ZM152.828 39.6257V38.6257H162.188V43.407H160.984V39.6257H152.828ZM161.016 38.0164V29.5164H162.188V38.0164H161.016ZM175.469 37.032V38.032H165.859V30.7195H175.312V31.7507H167.109V33.8132H175.016V34.7976H167.109V37.032H175.469ZM164.219 41.5945V40.5789H176.938V41.5945H164.219Z" fill="white"/>
</svg>
