<svg width="157" height="157" viewBox="0 0 157 157" fill="none" xmlns="http://www.w3.org/2000/svg">
<circle cx="78.5" cy="78.5" r="78.5" fill="#2D9D27"/>
<path fill-rule="evenodd" clip-rule="evenodd" d="M61.6586 108.52C61.7372 108.624 61.8146 108.729 61.8906 108.836C61.9745 108.801 62.0598 108.768 62.1464 108.735C61.9831 108.664 61.8205 108.593 61.6586 108.52ZM90.4726 120.025C90.0273 121.481 88.9807 122.809 87.4952 123.909C84.9326 126.117 81.0668 127.523 76.742 127.523C69.4696 127.523 66.1185 126.027 63.2111 121.504C60.6636 125.646 56.573 126.411 51.7548 125.138C46.2965 123.696 43.4638 114.803 45.4944 109.374L45.6096 109.203C45.3189 109.252 45.0202 109.302 44.7131 109.351C31.1973 111.509 25.9727 107.42 25.9727 96.8572C25.9727 92.6235 28.404 88.8817 32.1232 86.622C26.2467 85.1249 21.6602 80.1532 23.3571 73.4601C24.6822 66.3927 28.9063 59.3253 36.7599 62.2792C36.7492 61.3987 36.7053 60.5024 36.6611 59.6024C36.3891 54.0581 36.1102 48.3739 43.5772 45.4063C47.8655 43.7019 51.0418 43.8452 53.4149 45.0669C53.8836 37.4561 56.7978 31.7118 65.0434 29.9596C69.4654 29.02 72.892 30.6541 75.2448 33.5917C78.8305 31.4214 83.3795 29.8627 88.4407 29.1646C97.7313 27.8831 104.512 34.2325 104.534 43.0205C105.097 43.0181 105.644 43.0096 106.174 43.0013C112.089 42.9092 115.971 42.8488 118.539 51.6531C120.578 58.6422 121.786 64.4698 115.359 67.7888C118.538 68.3764 121.191 70.2008 122.179 75.7227C123.769 76.5841 125.879 77.2346 128.578 77.2791C134.868 77.3828 145.48 72.6562 150 70.2799C148.367 74.9461 142.434 84.6931 131.768 86.3522C127.207 87.0618 123.692 86.9589 121.073 86.4838C119.226 90.2126 115.91 92.5818 112.597 93.8548C114.728 94.5015 114.91 95.7572 114.91 98.1066C114.91 101.117 112.449 105.274 106.87 106.926C107.292 107.966 107.522 109.089 107.522 110.259C107.522 115.654 102.64 122.526 96.6182 122.526C94.3386 122.526 92.2224 121.541 90.4726 120.025ZM58.476 74.6562C58.5276 75.1529 58.972 75.5137 59.4686 75.4621C59.9652 75.4106 60.3261 74.9661 60.2745 74.4695C60.1475 73.2466 59.6851 71.426 58.6758 69.904C57.6476 68.3536 55.9937 67.0463 53.5568 67.1454C51.1606 67.2429 49.5504 68.561 48.5474 70.0816C47.5612 71.5769 47.1218 73.3145 47.0115 74.4775C46.9643 74.9746 47.3291 75.4158 47.8262 75.4629C48.3233 75.51 48.7644 75.1453 48.8116 74.6482C48.9007 73.7088 49.2687 72.2721 50.0568 71.0772C50.8282 69.9078 51.9594 69.0201 53.6303 68.9521C55.2606 68.8858 56.3811 69.7154 57.1689 70.9033C57.9755 72.1196 58.3704 73.6388 58.476 74.6562ZM89.7978 75.4621C89.3012 75.5137 88.8568 75.1529 88.8052 74.6562C88.6996 73.6388 88.3047 72.1196 87.4981 70.9033C86.7103 69.7154 85.5898 68.8858 83.9595 68.9521C82.2886 69.0201 81.1574 69.9078 80.386 71.0772C79.5979 72.2721 79.2299 73.7088 79.1408 74.6482C79.0937 75.1453 78.6525 75.51 78.1554 75.4629C77.6583 75.4158 77.2936 74.9746 77.3407 74.4775C77.451 73.3145 77.8904 71.5769 78.8767 70.0816C79.8797 68.561 81.4898 67.2429 83.886 67.1454C86.3229 67.0463 87.9769 68.3536 89.005 69.904C90.0144 71.426 90.4768 73.2466 90.6037 74.4695C90.6553 74.9661 90.2945 75.4106 89.7978 75.4621ZM89.2035 90.1246C89.4434 89.6867 89.283 89.1373 88.8451 88.8973C88.4072 88.6574 87.8577 88.8179 87.6178 89.2557C86.2603 91.7332 81.167 96.9905 72.0018 96.9905C62.822 96.9905 57.0295 91.7152 55.3321 89.1863C55.0538 88.7717 54.4921 88.6612 54.0776 88.9395C53.663 89.2178 53.5525 89.7795 53.8308 90.194C55.8047 93.1348 62.1203 98.7987 72.0018 98.7987C81.8978 98.7987 87.5639 93.1168 89.2035 90.1246ZM49.7178 80.8753C49.999 82.3382 46.3728 84.2652 41.6183 85.1793C36.8639 86.0934 32.7816 85.6485 32.5004 84.1856C32.2191 82.7227 35.8453 80.7957 40.5998 79.8816C45.3542 78.9675 49.4365 79.4124 49.7178 80.8753ZM96.2397 82.9315C100.994 82.0173 104.62 80.0904 104.339 78.6275C104.058 77.1646 99.9756 76.7197 95.2211 77.6338C90.4667 78.5479 86.8404 80.4749 87.1217 81.9378C87.403 83.4007 91.4852 83.8456 96.2397 82.9315Z" fill="url(#paint0_linear_131_629)"/>
<defs>
<linearGradient id="paint0_linear_131_629" x1="44.9927" y1="43.8683" x2="115.617" y2="113.563" gradientUnits="userSpaceOnUse">
<stop offset="0.475" stop-color="white"/>
<stop offset="1" stop-color="#ECF5F5"/>
</linearGradient>
</defs>
</svg>
