<svg width="157" height="157" viewBox="0 0 157 157" fill="none" xmlns="http://www.w3.org/2000/svg">
<circle cx="78.5" cy="78.5" r="78.5" fill="#D7742D"/>
<path fill-rule="evenodd" clip-rule="evenodd" d="M63.8906 107.836C63.8146 107.729 63.7372 107.624 63.6586 107.52C63.8205 107.593 63.9831 107.664 64.1464 107.735C64.0598 107.768 63.9745 107.801 63.8906 107.836ZM89.4952 122.909C90.9807 121.809 92.0273 120.481 92.4726 119.025C94.2224 120.541 96.3386 121.526 98.6182 121.526C104.64 121.526 109.522 114.654 109.522 109.259C109.522 108.089 109.292 106.966 108.87 105.926C114.449 104.274 116.91 100.117 116.91 97.1066C116.91 94.7572 116.728 93.5015 114.597 92.8548C117.91 91.5818 121.226 89.2126 123.073 85.4838C125.692 85.9589 129.207 86.0618 133.768 85.3522C144.434 83.6931 150.367 73.9461 152 69.2799C147.48 71.6562 136.868 76.3828 130.578 76.2791C127.879 76.2346 125.769 75.5841 124.179 74.7227C123.191 69.2008 120.538 67.3764 117.359 66.7888C123.786 63.4698 122.578 57.6422 120.539 50.6531C117.971 41.8488 114.089 41.9092 108.174 42.0013C107.644 42.0096 107.097 42.0181 106.534 42.0205C106.512 33.2325 99.7313 26.8831 90.4407 28.1646C85.3795 28.8627 80.8305 30.4214 77.2448 32.5917C74.892 29.6541 71.4654 28.02 67.0434 28.9596C58.7978 30.7118 55.8836 36.4561 55.4149 44.0669C53.0418 42.8452 49.8655 42.7019 45.5772 44.4063C38.1102 47.3739 38.3891 53.0581 38.6611 58.6024C38.7053 59.5024 38.7492 60.3987 38.7599 61.2792C30.9063 58.3253 26.6822 65.3927 25.3571 72.4601C23.6602 79.1532 28.2467 84.1249 34.1232 85.622C30.404 87.8817 27.9727 91.6235 27.9727 95.8572C27.9727 106.42 33.1973 110.509 46.7131 108.351C47.0202 108.302 47.3189 108.252 47.6096 108.203L47.4944 108.374C45.4638 113.803 48.2965 122.696 53.7548 124.138C58.573 125.411 62.6636 124.646 65.2111 120.504C68.1185 125.027 71.4696 126.523 78.742 126.523C83.0668 126.523 86.9326 125.117 89.4952 122.909ZM51.7178 79.8753C51.999 81.3382 48.3728 83.2652 43.6183 84.1793C38.8639 85.0934 34.7816 84.6485 34.5004 83.1856C34.2191 81.7227 37.8453 79.7957 42.5998 78.8816C47.3542 77.9675 51.4365 78.4124 51.7178 79.8753ZM98.2397 81.9315C102.994 81.0173 106.62 79.0904 106.339 77.6275C106.058 76.1646 101.976 75.7197 97.2211 76.6338C92.4667 77.5479 88.8404 79.4749 89.1217 80.9378C89.403 82.4007 93.4852 82.8456 98.2397 81.9315ZM59 77.19C61.8664 77.19 64.19 74.8664 64.19 72C64.19 69.1336 61.8664 66.81 59 66.81C56.1336 66.81 53.81 69.1336 53.81 72C53.81 74.8664 56.1336 77.19 59 77.19ZM59 79C62.866 79 66 75.866 66 72C66 68.134 62.866 65 59 65C55.134 65 52 68.134 52 72C52 75.866 55.134 79 59 79ZM90.19 72C90.19 74.8664 87.8664 77.19 85 77.19C82.1336 77.19 79.81 74.8664 79.81 72C79.81 69.1336 82.1336 66.81 85 66.81C87.8664 66.81 90.19 69.1336 90.19 72ZM92 72C92 75.866 88.866 79 85 79C81.134 79 78 75.866 78 72C78 68.134 81.134 65 85 65C88.866 65 92 68.134 92 72Z" fill="url(#paint0_linear_131_628)"/>
<defs>
<linearGradient id="paint0_linear_131_628" x1="46.9927" y1="42.8683" x2="117.617" y2="112.563" gradientUnits="userSpaceOnUse">
<stop offset="0.475" stop-color="white"/>
<stop offset="1" stop-color="#ECF5F5"/>
</linearGradient>
</defs>
</svg>
