<svg width="261" height="178" viewBox="0 0 261 178" fill="none" xmlns="http://www.w3.org/2000/svg">
<ellipse cx="130.5" cy="155" rx="130.5" ry="23" fill="#85BCBD"/>
<path fill-rule="evenodd" clip-rule="evenodd" d="M110.891 79.8361C110.815 79.7292 110.737 79.6237 110.659 79.5197C110.82 79.5925 110.983 79.6642 111.146 79.7347C111.06 79.7676 110.974 79.8014 110.891 79.8361ZM136.495 94.9094C137.981 93.8088 139.027 92.481 139.473 91.0246C141.222 92.5412 143.339 93.5259 145.618 93.5259C151.64 93.5259 156.522 86.654 156.522 81.2595C156.522 81.0611 156.515 80.8641 156.502 80.6686C166.832 83.5953 176.274 77.2919 179.712 73.7623C175.963 73.9438 168.692 73.8875 162.855 72.753C163.57 71.5041 163.91 70.2261 163.91 69.1066C163.91 66.7572 163.728 65.5015 161.597 64.8548C166.835 62.8419 172.083 58.0882 171.514 49.5526C170.997 41.7933 168.028 39.4671 164.359 38.7888C170.786 35.4698 169.578 29.6422 167.539 22.6531C164.971 13.8488 161.089 13.9092 155.174 14.0013C154.644 14.0096 154.097 14.0181 153.534 14.0205C153.512 5.2325 146.731 -1.11685 137.441 0.164614C132.379 0.862708 127.83 2.42136 124.245 4.59173C121.892 1.65413 118.465 0.0199607 114.043 0.959632C105.798 2.71182 102.884 8.45608 102.415 16.0669C100.042 14.8452 96.8655 14.7019 92.5772 16.4062C85.1102 19.3739 85.3891 25.0581 85.6611 30.6024C85.7053 31.5024 85.7492 32.3987 85.7599 33.2792C77.9063 30.3253 73.6822 37.3927 72.3571 44.4601C70.6602 51.1532 75.2467 56.1249 81.1232 57.622C77.404 59.8817 74.9727 63.6235 74.9727 67.8572C74.9727 78.4199 80.1973 82.5088 93.7131 80.3508C94.0202 80.3017 94.3189 80.2524 94.6096 80.2026L94.4944 80.3739C92.4638 85.8026 95.2965 94.6964 100.755 96.1382C105.573 97.4109 109.664 96.6462 112.211 92.5044C115.119 97.0271 118.47 98.5234 125.742 98.5234C130.067 98.5234 133.933 97.1174 136.495 94.9094Z" fill="url(#paint0_linear_425_2908)"/>
<ellipse cx="90.1092" cy="53.5303" rx="8.76637" ry="2.69735" transform="rotate(-10.8831 90.1092 53.5303)" fill="#FFBDBD"/>
<ellipse cx="144.73" cy="51.2827" rx="8.76637" ry="2.69735" transform="rotate(-10.8831 144.73 51.2827)" fill="#FFBDBD"/>
<path d="M129 40L141 34" stroke="#353535" stroke-width="1.91" stroke-linecap="round"/>
<path d="M112 40L100 34" stroke="#353535" stroke-width="1.91" stroke-linecap="round"/>
<ellipse cx="109" cy="43.5" rx="2" ry="3.5" fill="#353535"/>
<ellipse cx="131" cy="43.5" rx="2" ry="3.5" fill="#353535"/>
<path d="M136 59C136 60.5759 135.599 62.1363 134.82 63.5922C134.041 65.0481 132.899 66.371 131.46 67.4853C130.021 68.5996 128.312 69.4835 126.432 70.0866C124.551 70.6896 122.535 71 120.5 71C118.465 71 116.449 70.6896 114.568 70.0866C112.688 69.4835 110.979 68.5996 109.54 67.4853C108.101 66.371 106.959 65.0481 106.18 63.5922C105.401 62.1363 105 60.5759 105 59L120.5 59H136Z" fill="#FFBDBD"/>
<path d="M124 59C124 59.2626 123.897 59.5227 123.696 59.7654C123.494 60.008 123.2 60.2285 122.828 60.4142C122.457 60.5999 122.016 60.7472 121.531 60.8478C121.045 60.9483 120.525 61 120 61C119.475 61 118.955 60.9483 118.469 60.8478C117.984 60.7472 117.543 60.5999 117.172 60.4142C116.8 60.2285 116.506 60.008 116.304 59.7654C116.103 59.5227 116 59.2626 116 59L120 59H124Z" fill="#F8F8F8"/>
<path d="M67.4999 27.5C66.6999 38.3 78.8333 38.3333 84.9999 37V43.5C63.4 45.5 61.3333 33.6667 62.9999 27.5H67.4999Z" fill="white"/>
<path d="M177.5 27.5C178.3 38.3 166.167 38.3333 160 37V43.5C181.6 45.5 183.667 33.6667 182 27.5H177.5Z" fill="white"/>
<circle cx="65" cy="25" r="5" fill="white"/>
<circle cx="5" cy="5" r="5" transform="matrix(-1 0 0 1 185 20)" fill="white"/>
<defs>
<linearGradient id="paint0_linear_425_2908" x1="93.9927" y1="14.8683" x2="164.617" y2="84.5635" gradientUnits="userSpaceOnUse">
<stop offset="0.475" stop-color="white"/>
<stop offset="1" stop-color="#ECF5F5"/>
</linearGradient>
</defs>
</svg>
