<svg width="41" height="32" viewBox="0 0 41 32" fill="none" xmlns="http://www.w3.org/2000/svg">
<g filter="url(#filter0_d_77_458)">
<mask id="path-1-outside-1_77_458" maskUnits="userSpaceOnUse" x="1.47852" y="0" width="38" height="30" fill="black">
<rect fill="white" x="1.47852" width="38" height="30"/>
<path fill-rule="evenodd" clip-rule="evenodd" d="M27.6141 23.303C27.6354 23.2731 27.657 23.2435 27.679 23.2144C27.6337 23.2348 27.5882 23.2549 27.5425 23.2746C27.5668 23.2838 27.5906 23.2933 27.6141 23.303ZM20.4612 27.5138C20.0462 27.2063 19.7538 26.8354 19.6294 26.4285C19.1406 26.8522 18.5494 27.1273 17.9126 27.1273C16.2303 27.1273 14.8666 25.2076 14.8666 23.7006C14.8666 23.3735 14.9308 23.0598 15.0486 22.7692C13.4902 22.3077 12.8025 21.1465 12.8025 20.3055C12.8025 19.6492 12.8536 19.2984 13.4486 19.1178C12.5233 18.7621 11.5968 18.1003 11.0809 17.0586C10.3493 17.1913 9.36736 17.2201 8.09311 17.0218C5.11359 16.5584 3.45618 13.8354 2.99991 12.5319C4.2626 13.1957 7.22726 14.5162 8.98442 14.4872C9.73832 14.4748 10.3278 14.293 10.7718 14.0524C11.0481 12.5098 11.7892 12.0001 12.6772 11.836C10.8816 10.9088 11.2193 9.28081 11.7888 7.32833C12.5062 4.86878 13.5906 4.88565 15.2431 4.91138C15.3912 4.91368 15.5439 4.91606 15.7012 4.91673C15.7075 2.46174 17.6016 0.687998 20.1971 1.04599C21.6109 1.241 22.8817 1.67642 23.8834 2.28273C24.5407 1.46206 25.498 1.00552 26.7333 1.26803C29.0368 1.75753 29.8509 3.36228 29.9818 5.48848C30.6448 5.14717 31.5321 5.10715 32.7301 5.58327C34.8161 6.41232 34.7382 8.00025 34.6622 9.54909C34.6498 9.8005 34.6375 10.0509 34.6346 10.2968C36.8285 9.47165 38.0086 11.446 38.3788 13.4203C38.8528 15.2901 37.5716 16.6789 35.9299 17.0972C36.9689 17.7285 37.6481 18.7738 37.6481 19.9564C37.6481 22.9073 36.1885 24.0495 32.4128 23.4466C32.3269 23.4329 32.2434 23.4192 32.1622 23.4053L32.1945 23.4532C32.7618 24.9698 31.9704 27.4544 30.4456 27.8571C29.0996 28.2127 27.9568 27.9991 27.2452 26.842C26.433 28.1054 25.4968 28.5234 23.4652 28.5234C22.257 28.5234 21.177 28.1306 20.4612 27.5138Z"/>
</mask>
<path fill-rule="evenodd" clip-rule="evenodd" d="M27.6141 23.303C27.6354 23.2731 27.657 23.2435 27.679 23.2144C27.6337 23.2348 27.5882 23.2549 27.5425 23.2746C27.5668 23.2838 27.5906 23.2933 27.6141 23.303ZM20.4612 27.5138C20.0462 27.2063 19.7538 26.8354 19.6294 26.4285C19.1406 26.8522 18.5494 27.1273 17.9126 27.1273C16.2303 27.1273 14.8666 25.2076 14.8666 23.7006C14.8666 23.3735 14.9308 23.0598 15.0486 22.7692C13.4902 22.3077 12.8025 21.1465 12.8025 20.3055C12.8025 19.6492 12.8536 19.2984 13.4486 19.1178C12.5233 18.7621 11.5968 18.1003 11.0809 17.0586C10.3493 17.1913 9.36736 17.2201 8.09311 17.0218C5.11359 16.5584 3.45618 13.8354 2.99991 12.5319C4.2626 13.1957 7.22726 14.5162 8.98442 14.4872C9.73832 14.4748 10.3278 14.293 10.7718 14.0524C11.0481 12.5098 11.7892 12.0001 12.6772 11.836C10.8816 10.9088 11.2193 9.28081 11.7888 7.32833C12.5062 4.86878 13.5906 4.88565 15.2431 4.91138C15.3912 4.91368 15.5439 4.91606 15.7012 4.91673C15.7075 2.46174 17.6016 0.687998 20.1971 1.04599C21.6109 1.241 22.8817 1.67642 23.8834 2.28273C24.5407 1.46206 25.498 1.00552 26.7333 1.26803C29.0368 1.75753 29.8509 3.36228 29.9818 5.48848C30.6448 5.14717 31.5321 5.10715 32.7301 5.58327C34.8161 6.41232 34.7382 8.00025 34.6622 9.54909C34.6498 9.8005 34.6375 10.0509 34.6346 10.2968C36.8285 9.47165 38.0086 11.446 38.3788 13.4203C38.8528 15.2901 37.5716 16.6789 35.9299 17.0972C36.9689 17.7285 37.6481 18.7738 37.6481 19.9564C37.6481 22.9073 36.1885 24.0495 32.4128 23.4466C32.3269 23.4329 32.2434 23.4192 32.1622 23.4053L32.1945 23.4532C32.7618 24.9698 31.9704 27.4544 30.4456 27.8571C29.0996 28.2127 27.9568 27.9991 27.2452 26.842C26.433 28.1054 25.4968 28.5234 23.4652 28.5234C22.257 28.5234 21.177 28.1306 20.4612 27.5138Z" fill="url(#paint0_linear_77_458)"/>
<path d="M27.679 23.2144L27.3917 22.5761L28.2374 23.6366L27.679 23.2144ZM27.6141 23.303L28.1845 23.7087L27.8614 24.163L27.3463 23.9497L27.6141 23.303ZM27.5425 23.2746L27.294 23.929L25.68 23.316L27.2651 22.6319L27.5425 23.2746ZM19.6294 26.4285L19.171 25.8996L19.9842 25.1947L20.2988 26.2239L19.6294 26.4285ZM20.4612 27.5138L20.8779 26.9513L20.8986 26.9667L20.9181 26.9835L20.4612 27.5138ZM15.0486 22.7692L15.2474 22.098L15.9872 22.3171L15.6974 23.0321L15.0486 22.7692ZM13.4486 19.1178L13.6998 18.4644L15.6021 19.1955L13.652 19.7876L13.4486 19.1178ZM11.0809 17.0586L10.9559 16.3698L11.4743 16.2758L11.7082 16.7479L11.0809 17.0586ZM8.09311 17.0218L7.98552 17.7135H7.98551L8.09311 17.0218ZM2.99991 12.5319L2.33921 12.7631L1.75178 11.0849L3.32565 11.9123L2.99991 12.5319ZM8.98442 14.4872L8.97288 13.7873L8.98442 14.4872ZM10.7718 14.0524L11.4609 14.1758L11.4015 14.5073L11.1054 14.6678L10.7718 14.0524ZM12.6772 11.836L12.9984 11.214L14.816 12.1525L12.8045 12.5243L12.6772 11.836ZM11.7888 7.32833L11.1168 7.13233L11.1168 7.13233L11.7888 7.32833ZM15.2431 4.91138L15.2322 5.61129H15.2322L15.2431 4.91138ZM15.7012 4.91673L16.4012 4.9185L16.3995 5.61971L15.6983 5.61672L15.7012 4.91673ZM20.1971 1.04599L20.1014 1.73942L20.1971 1.04599ZM23.8834 2.28273L24.4298 2.72031L24.0461 3.19942L23.5209 2.88157L23.8834 2.28273ZM26.7333 1.26803L26.5878 1.95274L26.7333 1.26803ZM29.9818 5.48848L30.3022 6.11085L29.349 6.6016L29.2831 5.5315L29.9818 5.48848ZM32.7301 5.58327L32.4716 6.23378L32.7301 5.58327ZM34.6622 9.54909L33.963 9.51479L34.6622 9.54909ZM34.6346 10.2968L34.881 10.952L33.9222 11.3126L33.9346 10.2884L34.6346 10.2968ZM38.3788 13.4203L37.7002 13.5923L37.6948 13.571L37.6907 13.5493L38.3788 13.4203ZM35.9299 17.0972L35.5664 17.6954L34.1425 16.8302L35.7571 16.4189L35.9299 17.0972ZM32.4128 23.4466L32.3024 24.1379H32.3024L32.4128 23.4466ZM32.1622 23.4053L31.5813 23.7958L30.6696 22.4396L32.2803 22.7153L32.1622 23.4053ZM32.1945 23.4532L32.7754 23.0627L32.8213 23.131L32.8501 23.208L32.1945 23.4532ZM30.4456 27.8571L30.6244 28.5339H30.6244L30.4456 27.8571ZM27.2452 26.842L26.6563 26.4635L27.2583 25.5271L27.8414 26.4753L27.2452 26.842ZM28.2374 23.6366C28.2195 23.6602 28.2019 23.6842 28.1845 23.7087L27.0437 22.8972C27.0688 22.8619 27.0945 22.8269 27.1207 22.7923L28.2374 23.6366ZM27.2651 22.6319C27.3075 22.6136 27.3497 22.595 27.3917 22.5761L27.9663 23.8528C27.9177 23.8746 27.8689 23.8961 27.8199 23.9173L27.2651 22.6319ZM27.3463 23.9497C27.3295 23.9428 27.312 23.9358 27.294 23.929L27.791 22.6202C27.8215 22.6318 27.8518 22.6438 27.8818 22.6562L27.3463 23.9497ZM20.2988 26.2239C20.368 26.4502 20.5475 26.7066 20.8779 26.9513L20.0444 28.0762C19.5448 27.7061 19.1396 27.2206 18.96 26.6332L20.2988 26.2239ZM17.9126 26.4273C18.3413 26.4273 18.7758 26.242 19.171 25.8996L20.0879 26.9575C19.5054 27.4624 18.7575 27.8273 17.9126 27.8273V26.4273ZM15.5666 23.7006C15.5666 24.2631 15.8313 24.9669 16.2988 25.5337C16.7654 26.0995 17.3462 26.4273 17.9126 26.4273V27.8273C16.7967 27.8273 15.8545 27.1953 15.2187 26.4245C14.5837 25.6546 14.1666 24.645 14.1666 23.7006H15.5666ZM15.6974 23.0321C15.6124 23.2417 15.5666 23.4662 15.5666 23.7006H14.1666C14.1666 23.2807 14.2492 22.878 14.3999 22.5062L15.6974 23.0321ZM13.5025 20.3055C13.5025 20.7922 13.9416 21.7114 15.2474 22.098L14.8499 23.4404C13.0388 22.9041 12.1025 21.5007 12.1025 20.3055H13.5025ZM13.652 19.7876C13.5582 19.816 13.5275 19.839 13.5254 19.8406C13.525 19.8409 13.5289 19.8378 13.5337 19.8316C13.5386 19.8255 13.5404 19.8213 13.54 19.8222C13.5378 19.8271 13.5251 19.8587 13.5156 19.9451C13.5059 20.0326 13.5025 20.1454 13.5025 20.3055H12.1025C12.1025 19.9995 12.1057 19.5956 12.2648 19.2444C12.4591 18.8156 12.8185 18.5775 13.2453 18.448L13.652 19.7876ZM11.7082 16.7479C12.1259 17.5914 12.8901 18.1532 13.6998 18.4644L13.1975 19.7712C12.1564 19.3711 11.0677 18.6092 10.4536 17.3693L11.7082 16.7479ZM11.2058 17.7473C10.3845 17.8964 9.32265 17.9215 7.98552 17.7135L8.2007 16.3302C9.41207 16.5186 10.3142 16.4863 10.9559 16.3698L11.2058 17.7473ZM7.98551 17.7135C6.30125 17.4515 5.00855 16.5525 4.08921 15.5702C3.17478 14.5932 2.59746 13.5009 2.33921 12.7631L3.66061 12.3006C3.85863 12.8664 4.33815 13.7874 5.11137 14.6136C5.87968 15.4345 6.90544 16.1287 8.2007 16.3302L7.98551 17.7135ZM3.32565 11.9123C3.93316 12.2317 4.96154 12.7145 6.04736 13.112C7.15597 13.5178 8.23246 13.7995 8.97288 13.7873L8.99596 15.1871C7.97922 15.2039 6.6948 14.8398 5.56613 14.4267C4.41465 14.0052 3.32935 13.4959 2.67417 13.1515L3.32565 11.9123ZM8.97288 13.7873C9.61688 13.7767 10.0955 13.6227 10.4383 13.4369L11.1054 14.6678C10.56 14.9634 9.85976 15.1729 8.99596 15.1871L8.97288 13.7873ZM12.8045 12.5243C12.4562 12.5887 12.1981 12.7081 11.9973 12.9149C11.7921 13.1263 11.5827 13.4953 11.4609 14.1758L10.0828 13.929C10.2372 13.0669 10.5365 12.4097 10.9929 11.9397C11.4537 11.465 12.0102 11.2474 12.55 11.1477L12.8045 12.5243ZM12.4608 7.52433C12.1709 8.51835 11.9881 9.28893 12.0433 9.90407C12.0692 10.1922 12.1467 10.4249 12.2807 10.623C12.4153 10.8221 12.6333 11.0255 12.9984 11.214L12.3561 12.458C11.8234 12.1829 11.4102 11.8351 11.1209 11.4071C10.831 10.9783 10.6919 10.5081 10.6489 10.0292C10.5664 9.11045 10.8372 8.09079 11.1168 7.13233L12.4608 7.52433ZM15.2322 5.61129C14.3533 5.59761 13.8696 5.60728 13.4925 5.80668C13.1699 5.97724 12.7974 6.37023 12.4608 7.52433L11.1168 7.13233C11.4975 5.82688 12.0259 4.99852 12.838 4.56907C13.5956 4.16845 14.4804 4.19942 15.254 4.21146L15.2322 5.61129ZM15.6983 5.61672C15.5363 5.61603 15.3798 5.61359 15.2322 5.61129L15.254 4.21146C15.4026 4.21377 15.5514 4.21608 15.7042 4.21673L15.6983 5.61672ZM20.1014 1.73942C18.989 1.58598 18.0753 1.89141 17.4416 2.45112C16.8052 3.01333 16.4039 3.87404 16.4012 4.9185L15.0012 4.91496C15.0048 3.50443 15.5537 2.25077 16.5148 1.40186C17.4786 0.550454 18.8097 0.148001 20.2927 0.352552L20.1014 1.73942ZM23.5209 2.88157C22.6129 2.33193 21.4359 1.92348 20.1014 1.73942L20.2927 0.352552C21.786 0.558525 23.1506 1.02091 24.2459 1.68388L23.5209 2.88157ZM26.5878 1.95274C25.6382 1.75096 24.9396 2.0837 24.4298 2.72031L23.337 1.84514C24.1417 0.840416 25.3577 0.260081 26.8788 0.583319L26.5878 1.95274ZM29.2831 5.5315C29.2219 4.53635 29.0042 3.74712 28.5981 3.16492C28.2059 2.60249 27.5912 2.16596 26.5878 1.95274L26.8788 0.583319C28.1789 0.859597 29.1231 1.47019 29.7465 2.36406C30.3561 3.23816 30.6109 4.31441 30.6805 5.44547L29.2831 5.5315ZM32.4716 6.23378C31.3967 5.8066 30.7314 5.88988 30.3022 6.11085L29.6614 4.86612C30.5581 4.40445 31.6675 4.4077 32.9886 4.93277L32.4716 6.23378ZM33.963 9.51479C34.0025 8.70988 34.0254 8.06457 33.8429 7.51793C33.6827 7.03822 33.342 6.57973 32.4716 6.23378L32.9886 4.93277C34.2041 5.41586 34.8674 6.16586 35.1708 7.07459C35.4519 7.91639 35.3978 8.83946 35.3613 9.58339L33.963 9.51479ZM33.9346 10.2884C33.9378 10.0273 33.9508 9.76385 33.963 9.51479L35.3613 9.58339C35.3489 9.83716 35.3373 10.0745 35.3345 10.3053L33.9346 10.2884ZM37.6907 13.5493C37.5182 12.629 37.1688 11.7938 36.6871 11.2951C36.4548 11.0546 36.2041 10.9043 35.9329 10.8405C35.6636 10.7772 35.3207 10.7866 34.881 10.952L34.3881 9.64163C35.0454 9.39442 35.6728 9.34121 36.2533 9.47768C36.832 9.61373 37.3108 9.92568 37.6941 10.3224C38.4434 11.0982 38.8691 12.2373 39.0668 13.2913L37.6907 13.5493ZM35.7571 16.4189C36.4479 16.2429 37.0289 15.8703 37.384 15.388C37.7275 14.9216 37.8852 14.322 37.7002 13.5923L39.0573 13.2483C39.3463 14.3884 39.1005 15.4181 38.5114 16.2181C37.934 17.0023 37.0536 17.5333 36.1028 17.7755L35.7571 16.4189ZM36.9481 19.9564C36.9481 19.0578 36.4326 18.2217 35.5664 17.6954L36.2934 16.499C37.5052 17.2352 38.3481 18.4897 38.3481 19.9564H36.9481ZM32.5231 22.7554C34.3714 23.0505 35.4445 22.8761 36.048 22.4585C36.6055 22.0728 36.9481 21.3399 36.9481 19.9564H38.3481C38.3481 21.5238 37.9608 22.8375 36.8446 23.6098C35.7744 24.3503 34.2299 24.4457 32.3024 24.1379L32.5231 22.7554ZM32.2803 22.7153C32.3588 22.7287 32.4397 22.7421 32.5231 22.7554L32.3024 24.1379C32.2141 24.1238 32.1281 24.1096 32.0442 24.0952L32.2803 22.7153ZM31.6136 23.8438L31.5813 23.7958L32.7432 23.0147L32.7754 23.0627L31.6136 23.8438ZM30.2668 27.1803C30.7136 27.0623 31.1677 26.5903 31.4478 25.8307C31.7228 25.0849 31.7497 24.2622 31.5389 23.6985L32.8501 23.208C33.2065 24.1608 33.1214 25.3387 32.7614 26.315C32.4064 27.2775 31.7024 28.2492 30.6244 28.5339L30.2668 27.1803ZM27.8414 26.4753C28.112 26.9152 28.436 27.1408 28.7981 27.2432C29.1801 27.3513 29.6669 27.3388 30.2668 27.1803L30.6244 28.5339C29.8783 28.731 29.1207 28.7895 28.4169 28.5904C27.6932 28.3856 27.09 27.9259 26.6489 27.2087L27.8414 26.4753ZM23.4652 27.8234C24.4457 27.8234 25.0715 27.7201 25.5278 27.517C25.9603 27.3244 26.3022 27.0143 26.6563 26.4635L27.834 27.2205C27.3759 27.9331 26.8436 28.4637 26.0971 28.796C25.3744 29.1177 24.5163 29.2234 23.4652 29.2234V27.8234ZM20.9181 26.9835C21.4888 27.4753 22.3992 27.8234 23.4652 27.8234V29.2234C22.1148 29.2234 20.8652 28.786 20.0042 28.0441L20.9181 26.9835Z" fill="#85BCBD" mask="url(#path-1-outside-1_77_458)"/>
<path fill-rule="evenodd" clip-rule="evenodd" d="M27.6141 23.303C27.6354 23.2731 27.657 23.2435 27.679 23.2144C27.6337 23.2348 27.5882 23.2549 27.5425 23.2746C27.5668 23.2838 27.5906 23.2933 27.6141 23.303ZM20.4612 27.5138C20.0462 27.2063 19.7538 26.8354 19.6294 26.4285C19.1406 26.8522 18.5494 27.1273 17.9126 27.1273C16.2303 27.1273 14.8666 25.2076 14.8666 23.7006C14.8666 23.3735 14.9308 23.0598 15.0486 22.7692C13.4902 22.3077 12.8025 21.1465 12.8025 20.3055C12.8025 19.6492 12.8536 19.2984 13.4486 19.1178C12.5233 18.7621 11.5968 18.1003 11.0809 17.0586C10.3493 17.1913 9.36736 17.2201 8.09311 17.0218C5.11359 16.5584 3.45618 13.8354 2.99991 12.5319C4.2626 13.1957 7.22726 14.5162 8.98442 14.4872C9.73832 14.4748 10.3278 14.293 10.7718 14.0524C11.0481 12.5098 11.7892 12.0001 12.6772 11.836C10.8816 10.9088 11.2193 9.28081 11.7888 7.32833C12.5062 4.86878 13.5906 4.88565 15.2431 4.91138C15.3912 4.91368 15.5439 4.91606 15.7012 4.91673C15.7075 2.46174 17.6016 0.687998 20.1971 1.04599C21.6109 1.241 22.8817 1.67642 23.8834 2.28273C24.5407 1.46206 25.498 1.00552 26.7333 1.26803C29.0368 1.75753 29.8509 3.36228 29.9818 5.48848C30.6448 5.14717 31.5321 5.10715 32.7301 5.58327C34.8161 6.41232 34.7382 8.00025 34.6622 9.54909C34.6498 9.8005 34.6375 10.0509 34.6346 10.2968C36.8285 9.47165 38.0086 11.446 38.3788 13.4203C38.8528 15.2901 37.5716 16.6789 35.9299 17.0972C36.9689 17.7285 37.6481 18.7738 37.6481 19.9564C37.6481 22.9073 36.1885 24.0495 32.4128 23.4466C32.3269 23.4329 32.2434 23.4192 32.1622 23.4053L32.1945 23.4532C32.7618 24.9698 31.9704 27.4544 30.4456 27.8571C29.0996 28.2127 27.9568 27.9991 27.2452 26.842C26.433 28.1054 25.4968 28.5234 23.4652 28.5234C22.257 28.5234 21.177 28.1306 20.4612 27.5138Z" fill="url(#paint1_linear_77_458)"/>
<path d="M27.7031 13.7285C27.7681 13.1027 28.1821 11.8625 29.3183 11.9087C30.4545 11.955 30.8499 13.1412 30.9056 13.7285" stroke="#353535" stroke-width="0.505128" stroke-linecap="round" stroke-linejoin="round"/>
<path d="M19.2305 13.7285C19.2954 13.1027 19.7095 11.8625 20.8456 11.9087C21.9818 11.955 22.3773 13.1412 22.433 13.7285" stroke="#353535" stroke-width="0.505128" stroke-linecap="round" stroke-linejoin="round"/>
<path d="M29.0425 17.9541C28.5297 18.7181 26.8384 20.2461 24.1759 20.2461C21.5135 20.2461 20.0106 18.7181 19.592 17.9541" stroke="#353535" stroke-width="0.505128" stroke-linecap="round" stroke-linejoin="round"/>
<ellipse cx="32.806" cy="15.9544" rx="2.44897" ry="0.753528" transform="rotate(-10.8831 32.806 15.9544)" fill="#FFBDBD"/>
<ellipse cx="17.5472" cy="15.3264" rx="2.44897" ry="0.753528" transform="rotate(-10.8831 17.5472 15.3264)" fill="#FFBDBD"/>
</g>
<defs>
<filter id="filter0_d_77_458" x="0.634272" y="0.300049" width="39.6616" height="31.1582" filterUnits="userSpaceOnUse" color-interpolation-filters="sRGB">
<feFlood flood-opacity="0" result="BackgroundImageFix"/>
<feColorMatrix in="SourceAlpha" type="matrix" values="0 0 0 0 0 0 0 0 0 0 0 0 0 0 0 0 0 0 127 0" result="hardAlpha"/>
<feOffset dy="1.11744"/>
<feGaussianBlur stdDeviation="0.558718"/>
<feComposite in2="hardAlpha" operator="out"/>
<feColorMatrix type="matrix" values="0 0 0 0 0 0 0 0 0 0 0 0 0 0 0 0 0 0 0.25 0"/>
<feBlend mode="normal" in2="BackgroundImageFix" result="effect1_dropShadow_77_458"/>
<feBlend mode="normal" in="SourceGraphic" in2="effect1_dropShadow_77_458" result="shape"/>
</filter>
<linearGradient id="paint0_linear_77_458" x1="32.3347" y1="5.1536" x2="12.6051" y2="24.6236" gradientUnits="userSpaceOnUse">
<stop offset="0.475" stop-color="white"/>
<stop offset="1" stop-color="#ECF5F5"/>
</linearGradient>
<linearGradient id="paint1_linear_77_458" x1="32.3347" y1="5.1536" x2="12.6051" y2="24.6236" gradientUnits="userSpaceOnUse">
<stop offset="0.475" stop-color="white"/>
<stop offset="1" stop-color="#ECF5F5"/>
</linearGradient>
</defs>
</svg>
