<svg width="133" height="62" viewBox="0 0 133 62" fill="none" xmlns="http://www.w3.org/2000/svg">
<g clip-path="url(#clip0_130_626)">
<path d="M47.5586 42.7966V46.1221" stroke="#BCBCBC" stroke-width="3.32561" stroke-linecap="round" stroke-linejoin="round"/>
<path d="M62.5234 30.3256V45.2908" stroke="#BCBCBC" stroke-width="3.32561" stroke-linecap="round" stroke-linejoin="round"/>
<path d="M37.5817 41.9651H57.5354" stroke="#BCBCBC" stroke-width="3.32561" stroke-linecap="round" stroke-linejoin="round"/>
<path fill-rule="evenodd" clip-rule="evenodd" d="M2.6628 43.628C1.74446 43.628 1 44.3724 1 45.2908C1 46.2091 1.74446 46.9535 2.6628 46.9535H15.1338V51.1106C15.1338 52.0289 15.8783 52.7734 16.7966 52.7734C17.7149 52.7734 18.4594 52.0289 18.4594 51.1106V46.9535H30.9303C31.8488 46.9535 32.5932 46.2091 32.5932 45.2908C32.5932 44.3724 31.8488 43.628 30.9303 43.628H16.7966H2.6628Z" fill="#BCBCBC"/>
<path fill-rule="evenodd" clip-rule="evenodd" d="M18.4597 28.6628C18.4597 27.7445 17.7152 27 16.7969 27C15.8785 27 15.1341 27.7445 15.1341 28.6628C15.1341 28.7269 15.1028 28.9893 14.9267 29.4625C14.7609 29.908 14.4986 30.4554 14.1297 31.061C13.3915 32.2729 12.27 33.6468 10.7697 34.847C7.72558 37.2823 3.85895 38.4174 2.3897 38.6622C1.48385 38.8132 0.87191 39.6699 1.02288 40.5758C1.17386 41.4816 2.03058 42.0935 2.93642 41.9426C4.79277 41.6332 9.24014 40.3295 12.8472 37.4438C14.4079 36.1952 15.6378 34.7899 16.5395 33.4599C17.2792 34.8044 18.3644 36.2032 19.9151 37.4438C23.5221 40.3295 27.9695 41.6332 29.8258 41.9426C30.7318 42.0935 31.5885 41.4816 31.7394 40.5758C31.8904 39.6699 31.2785 38.8132 30.3726 38.6622C28.9033 38.4174 25.0367 37.2823 21.9926 34.847C19.0981 32.5314 18.4597 29.5922 18.4597 28.6628Z" fill="#BCBCBC"/>
<path fill-rule="evenodd" clip-rule="evenodd" d="M48.545 29.683C48.545 28.7647 47.8005 28.0202 46.8822 28.0202C45.9639 28.0202 45.2193 28.7647 45.2193 29.683C45.2193 29.6795 45.2193 29.6804 45.2186 29.6859C45.2153 29.7115 45.1992 29.8353 45.1239 30.0684C45.0399 30.3285 44.9036 30.6573 44.7081 31.0266C44.3159 31.768 43.7224 32.6024 42.9386 33.3241C41.3385 34.7976 39.2973 35.4803 38.587 35.6166C37.6851 35.7896 37.0941 36.661 37.2673 37.5629C37.4403 38.4648 38.3116 39.0556 39.2135 38.8826C40.3814 38.6586 43.0353 37.7559 45.1915 35.7704C45.7659 35.2415 46.2632 34.6741 46.6854 34.1049C47.0636 34.677 47.5306 35.243 48.1033 35.7704C50.2593 37.7559 52.9132 38.6586 54.0811 38.8826C54.983 39.0556 55.8543 38.4648 56.0275 37.5629C56.2005 36.661 55.6097 35.7896 54.7078 35.6166C53.9975 35.4803 51.9563 34.7976 50.356 33.3241C48.895 31.9786 48.5515 30.243 48.5449 29.699C48.545 29.6937 48.545 29.6883 48.545 29.683Z" fill="#BCBCBC"/>
<path d="M2.66266 58.5932V51.942H30.9303V58.5932H2.66266Z" stroke="#BCBCBC" stroke-width="3.32561" stroke-linecap="round" stroke-linejoin="round"/>
<path d="M62.5234 58.5933H40.907V54.0584H62.5234V50.2793H40.907" stroke="#BCBCBC" stroke-width="3.32561" stroke-linecap="round" stroke-linejoin="round"/>
<path d="M70.8376 33.6513H83.3085V43.6281H70.8376V53.6049H83.3085" stroke="#BCBCBC" stroke-width="3.32561" stroke-linecap="round" stroke-linejoin="round"/>
<path d="M89.9598 30.3256V59.4246" stroke="#BCBCBC" stroke-width="3.32561" stroke-linecap="round" stroke-linejoin="round"/>
<path d="M90.7914 44.4595H95.7798" stroke="#BCBCBC" stroke-width="3.32561" stroke-linecap="round" stroke-linejoin="round"/>
<path d="M97.4425 30.3256V59.4246" stroke="#BCBCBC" stroke-width="3.32561" stroke-linecap="round" stroke-linejoin="round"/>
<path d="M107.842 30.872V51.1351" stroke="#BCBCBC" stroke-width="3.32561" stroke-linecap="round" stroke-linejoin="round"/>
<path d="M107.842 58.5035V56.6614" stroke="#BCBCBC" stroke-width="3.68421" stroke-linecap="round" stroke-linejoin="round"/>
</g>
<g clip-path="url(#clip1_130_626)">
<path d="M46.5586 41.7966V45.1221" stroke="white" stroke-width="3.32561" stroke-linecap="round" stroke-linejoin="round"/>
<path d="M61.5234 29.3256V44.2908" stroke="white" stroke-width="3.32561" stroke-linecap="round" stroke-linejoin="round"/>
<path d="M36.5817 40.9651H56.5354" stroke="white" stroke-width="3.32561" stroke-linecap="round" stroke-linejoin="round"/>
<path fill-rule="evenodd" clip-rule="evenodd" d="M1.6628 42.628C0.744461 42.628 0 43.3724 0 44.2908C0 45.2091 0.744461 45.9535 1.6628 45.9535H14.1338V50.1106C14.1338 51.0289 14.8783 51.7734 15.7966 51.7734C16.7149 51.7734 17.4594 51.0289 17.4594 50.1106V45.9535H29.9303C30.8488 45.9535 31.5932 45.2091 31.5932 44.2908C31.5932 43.3724 30.8488 42.628 29.9303 42.628H15.7966H1.6628Z" fill="white"/>
<path fill-rule="evenodd" clip-rule="evenodd" d="M17.4597 27.6628C17.4597 26.7445 16.7152 26 15.7969 26C14.8785 26 14.1341 26.7445 14.1341 27.6628C14.1341 27.7269 14.1028 27.9893 13.9267 28.4625C13.7609 28.908 13.4986 29.4554 13.1297 30.061C12.3915 31.2729 11.27 32.6468 9.76972 33.847C6.72558 36.2823 2.85895 37.4174 1.3897 37.6622C0.483853 37.8132 -0.12809 38.6699 0.0228837 39.5758C0.173858 40.4816 1.03058 41.0935 1.93642 40.9426C3.79277 40.6332 8.24014 39.3295 11.8472 36.4438C13.4079 35.1952 14.6378 33.7899 15.5395 32.4599C16.2792 33.8044 17.3644 35.2032 18.9151 36.4438C22.5221 39.3295 26.9695 40.6332 28.8258 40.9426C29.7318 41.0935 30.5885 40.4816 30.7394 39.5758C30.8904 38.6699 30.2785 37.8132 29.3726 37.6622C27.9033 37.4174 24.0367 36.2823 20.9926 33.847C18.0981 31.5314 17.4597 28.5922 17.4597 27.6628Z" fill="white"/>
<path fill-rule="evenodd" clip-rule="evenodd" d="M47.545 28.683C47.545 27.7647 46.8005 27.0202 45.8822 27.0202C44.9639 27.0202 44.2193 27.7647 44.2193 28.683C44.2193 28.6795 44.2193 28.6804 44.2186 28.6859C44.2153 28.7115 44.1992 28.8353 44.1239 29.0684C44.0399 29.3285 43.9036 29.6573 43.7081 30.0266C43.3159 30.768 42.7224 31.6024 41.9386 32.3241C40.3385 33.7976 38.2973 34.4803 37.587 34.6166C36.6851 34.7896 36.0941 35.661 36.2673 36.5629C36.4403 37.4648 37.3116 38.0556 38.2135 37.8826C39.3814 37.6586 42.0353 36.7559 44.1915 34.7704C44.7659 34.2415 45.2632 33.6741 45.6854 33.1049C46.0636 33.677 46.5306 34.243 47.1033 34.7704C49.2593 36.7559 51.9132 37.6586 53.0811 37.8826C53.983 38.0556 54.8543 37.4648 55.0275 36.5629C55.2005 35.661 54.6097 34.7896 53.7078 34.6166C52.9975 34.4803 50.9563 33.7976 49.356 32.3241C47.895 30.9786 47.5515 29.243 47.5449 28.699C47.545 28.6937 47.545 28.6883 47.545 28.683Z" fill="white"/>
<path d="M1.66266 57.5932V50.942H29.9303V57.5932H1.66266Z" stroke="white" stroke-width="3.32561" stroke-linecap="round" stroke-linejoin="round"/>
<path d="M61.5234 57.5933H39.907V53.0584H61.5234V49.2793H39.907" stroke="white" stroke-width="3.32561" stroke-linecap="round" stroke-linejoin="round"/>
<path d="M69.8376 32.6513H82.3085V42.6281H69.8376V52.6049H82.3085" stroke="white" stroke-width="3.32561" stroke-linecap="round" stroke-linejoin="round"/>
<path d="M88.9598 29.3256V58.4246" stroke="white" stroke-width="3.32561" stroke-linecap="round" stroke-linejoin="round"/>
<path d="M89.7914 43.4595H94.7798" stroke="white" stroke-width="3.32561" stroke-linecap="round" stroke-linejoin="round"/>
<path d="M96.4425 29.3256V58.4246" stroke="white" stroke-width="3.32561" stroke-linecap="round" stroke-linejoin="round"/>
<path d="M106.842 29.872V50.1351" stroke="white" stroke-width="3.32561" stroke-linecap="round" stroke-linejoin="round"/>
<path d="M106.842 57.5035V55.6614" stroke="white" stroke-width="3.68421" stroke-linecap="round" stroke-linejoin="round"/>
</g>
<path d="M13.5625 7.92188V8.95312H11.3125V16.2656H10.0938V2.375H11.3125V7.92188H13.5625ZM1.14062 12.7344V3.75H2.35938V11.7031C4.39062 11.7031 6.46094 11.5469 8.75 11.0625L8.90625 12.1094C6.50781 12.5938 4.35156 12.7344 2.25 12.7344H1.14062ZM21.4062 3.64062V10.0312H14.9844V3.64062H21.4062ZM16.1875 9.04688H20.2188V4.64062H16.1875V9.04688ZM16.5625 15.9688V11.5938H17.7656V14.9375H25.8906V15.9688H16.5625ZM24.0312 12.5625V2.375H25.25V6.60938H27.3438V7.64062H25.25V12.5625H24.0312ZM32.7656 3.39062C34.9453 3.39844 36.4922 4.72656 36.5 6.65625C36.4922 8.59375 34.9453 9.91406 32.7656 9.92188C30.5703 9.91406 29.0078 8.59375 29.0156 6.65625C29.0078 4.72656 30.5703 3.39844 32.7656 3.39062ZM28.2969 12.1875C30.8594 12.1953 34.3984 12.1719 37.4688 11.7188L37.5625 12.625C34.3828 13.2188 30.9688 13.2344 28.4688 13.2344L28.2969 12.1875ZM30.2188 6.65625C30.2109 7.95312 31.2812 8.84375 32.7656 8.84375C34.2344 8.84375 35.3047 7.95312 35.2969 6.65625C35.3047 5.36719 34.2344 4.46875 32.7656 4.46875C31.2812 4.46875 30.2109 5.36719 30.2188 6.65625ZM38.3906 16.2969V2.375H39.6094V16.2969H38.3906ZM57.1094 3.125V4.15625C57.1094 5.23438 57.1094 6.5 56.7422 8.23438H58.7812V9.25H46.0625V8.23438H55.5078C55.8984 6.48438 55.8984 5.23438 55.8906 4.15625V4.14062H47.6719V3.125H57.1094ZM47.625 16.0781V11.1719H57.1719V16.0781H47.625ZM48.8438 15.0781H55.9531V12.1406H48.8438V15.0781ZM71.4062 2.39062V12.6562H70.1719V8.90625H66.5781C65.9375 9.72656 64.9062 10.2188 63.7188 10.2188C61.6406 10.2188 60.1016 8.78125 60.1094 6.75C60.1016 4.71094 61.6406 3.27344 63.7188 3.26562C64.8984 3.27344 65.9141 3.75781 66.5625 4.5625H70.1719V2.39062H71.4062ZM61.2812 6.75C61.2812 8.14062 62.2969 9.13281 63.7188 9.125C65.0859 9.13281 66.125 8.14062 66.125 6.75C66.125 5.36719 65.0859 4.36719 63.7188 4.35938C62.2969 4.36719 61.2812 5.36719 61.2812 6.75ZM62.4844 15.9688V11.5781H63.7188V14.9375H71.7969V15.9688H62.4844ZM67.1172 5.57812C67.2422 5.9375 67.3125 6.32812 67.3125 6.75C67.3125 7.15625 67.2422 7.53906 67.125 7.89062H70.1719V5.57812H67.1172ZM90.4531 13.4375V14.4844H77.7344V13.4375H90.4531ZM78.8594 4.79688V3.78125H89.2344V4.79688H87.0312V9.65625H89.2031V10.6562H78.8906V9.65625H81.0625V4.79688H78.8594ZM82.2812 9.65625H85.8281V4.79688H82.2812V9.65625ZM104.281 13.5156V14.5469H91.5625V13.5156H97.2812V10.8906H93.1562V6.60938H101.469V4.42188H93.125V3.40625H102.672V7.60938H94.375V9.875H103V10.8906H98.4844V13.5156H104.281ZM114.484 2.6875V10.75H113.297V6.98438H111.172V5.96875H113.297V2.6875H114.484ZM105.453 9.5625C107.258 8.80469 108.32 7.00781 108.312 5.35938V4.53125H105.719V3.51562H111.953V4.53125H109.5V5.35938C109.5 6.86719 110.516 8.51562 112.281 9.25L111.641 10.1875C110.336 9.64062 109.422 8.60156 108.938 7.40625C108.453 8.75781 107.492 9.92188 106.109 10.5312L105.453 9.5625ZM107.828 12.4844V11.4844H117.188V16.2656H115.984V12.4844H107.828ZM116.016 10.875V2.375H117.188V10.875H116.016ZM130.469 9.89062V10.8906H120.859V3.57812H130.312V4.60938H122.109V6.67188H130.016V7.65625H122.109V9.89062H130.469ZM119.219 14.4531V13.4375H131.938V14.4531H119.219Z" fill="white"/>
<defs>
<clipPath id="clip0_130_626">
<rect width="108.684" height="35" fill="white" transform="translate(1 27)"/>
</clipPath>
<clipPath id="clip1_130_626">
<rect width="108.684" height="35" fill="white" transform="translate(0 26)"/>
</clipPath>
</defs>
</svg>
