<svg width="24" height="24" viewBox="0 0 24 24" fill="none" xmlns="http://www.w3.org/2000/svg">
<circle cx="12" cy="12" r="12" fill="#85BCBD"/>
<path d="M10.8594 14.5312C10.875 12.5391 11.4375 11.9297 12.4219 11.3281C13.0859 10.8984 13.6016 10.375 13.5938 9.59375C13.6016 8.71875 12.9141 8.15625 12.0625 8.15625C11.2891 8.15625 10.5391 8.65625 10.4844 9.70312H8.53125C8.58594 7.60156 10.1484 6.53125 12.0781 6.53125C14.1875 6.53125 15.6328 7.70312 15.6406 9.5625C15.6328 10.8359 15 11.6641 13.9844 12.2656C13.0781 12.8203 12.7031 13.3594 12.6875 14.5312V14.6719H10.8594V14.5312ZM10.6094 16.9062C10.6016 16.25 11.1562 15.7109 11.8281 15.7031C12.4766 15.7109 13.0312 16.25 13.0312 16.9062C13.0312 17.5781 12.4766 18.125 11.8281 18.125C11.1562 18.125 10.6016 17.5781 10.6094 16.9062Z" fill="white"/>
</svg>
