<svg width="16" height="16" viewBox="0 0 16 16" fill="none" xmlns="http://www.w3.org/2000/svg">
<path d="M5.5 2.5L8 4.5L11.5 2.5L13.5 4.5L13 7.5L7.5 12.5L2 6L3 3.5L5.5 2.5Z" fill="#FF6161" stroke="#FF6161"/>
<path d="M7.99992 13.9999L7.03325 13.1333C5.91103 12.1222 4.98325 11.2499 4.24992 10.5166C3.51659 9.78327 2.93325 9.12771 2.49992 8.54994C2.06659 7.96105 1.76103 7.42216 1.58325 6.93327C1.41659 6.44438 1.33325 5.94438 1.33325 5.43327C1.33325 4.38882 1.68325 3.5166 2.38325 2.8166C3.08325 2.1166 3.95547 1.7666 4.99992 1.7666C5.5777 1.7666 6.1277 1.88882 6.64992 2.13327C7.17214 2.37771 7.62214 2.72216 7.99992 3.1666C8.3777 2.72216 8.8277 2.37771 9.34992 2.13327C9.87214 1.88882 10.4221 1.7666 10.9999 1.7666C12.0444 1.7666 12.9166 2.1166 13.6166 2.8166C14.3166 3.5166 14.6666 4.38882 14.6666 5.43327C14.6666 5.94438 14.5777 6.44438 14.3999 6.93327C14.2333 7.42216 13.9333 7.96105 13.4999 8.54994C13.0666 9.12771 12.4833 9.78327 11.7499 10.5166C11.0166 11.2499 10.0888 12.1222 8.96659 13.1333L7.99992 13.9999ZM7.99992 12.1999C9.06659 11.2444 9.94436 10.4277 10.6333 9.74993C11.3221 9.06105 11.8666 8.4666 12.2666 7.9666C12.6666 7.45549 12.9444 7.00549 13.0999 6.6166C13.2555 6.2166 13.3333 5.82216 13.3333 5.43327C13.3333 4.7666 13.111 4.21105 12.6666 3.7666C12.2221 3.32216 11.6666 3.09994 10.9999 3.09994C10.4777 3.09994 9.99436 3.24994 9.54992 3.54994C9.10548 3.83882 8.79992 4.21105 8.63325 4.6666H7.36659C7.19992 4.21105 6.89436 3.83882 6.44992 3.54994C6.00547 3.24994 5.52214 3.09994 4.99992 3.09994C4.33325 3.09994 3.7777 3.32216 3.33325 3.7666C2.88881 4.21105 2.66659 4.7666 2.66659 5.43327C2.66659 5.82216 2.74436 6.2166 2.89992 6.6166C3.05547 7.00549 3.33325 7.45549 3.73325 7.9666C4.13325 8.4666 4.6777 9.06105 5.36659 9.74993C6.05547 10.4277 6.93325 11.2444 7.99992 12.1999Z" fill="#353535"/>
</svg>
