<svg width="16" height="16" viewBox="0 0 16 16" fill="none" xmlns="http://www.w3.org/2000/svg">
<path d="M7.99998 13.9999L7.03331 13.1333C5.91109 12.1222 4.98331 11.2499 4.24998 10.5166C3.51665 9.78327 2.93331 9.12771 2.49998 8.54994C2.06665 7.96105 1.76109 7.42216 1.58331 6.93327C1.41665 6.44438 1.33331 5.94438 1.33331 5.43327C1.33331 4.38882 1.68331 3.5166 2.38331 2.8166C3.08331 2.1166 3.95554 1.7666 4.99998 1.7666C5.57776 1.7666 6.12776 1.88882 6.64998 2.13327C7.1722 2.37771 7.6222 2.72216 7.99998 3.1666C8.37776 2.72216 8.82776 2.37771 9.34998 2.13327C9.8722 1.88882 10.4222 1.7666 11 1.7666C12.0444 1.7666 12.9166 2.1166 13.6166 2.8166C14.3166 3.5166 14.6666 4.38882 14.6666 5.43327C14.6666 5.94438 14.5778 6.44438 14.4 6.93327C14.2333 7.42216 13.9333 7.96105 13.5 8.54994C13.0666 9.12771 12.4833 9.78327 11.75 10.5166C11.0166 11.2499 10.0889 12.1222 8.96665 13.1333L7.99998 13.9999ZM7.99998 12.1999C9.06665 11.2444 9.94442 10.4277 10.6333 9.74993C11.3222 9.06105 11.8666 8.4666 12.2666 7.9666C12.6666 7.45549 12.9444 7.00549 13.1 6.6166C13.2555 6.2166 13.3333 5.82216 13.3333 5.43327C13.3333 4.7666 13.1111 4.21105 12.6666 3.7666C12.2222 3.32216 11.6666 3.09994 11 3.09994C10.4778 3.09994 9.99442 3.24994 9.54998 3.54994C9.10554 3.83882 8.79998 4.21105 8.63331 4.6666H7.36665C7.19998 4.21105 6.89442 3.83882 6.44998 3.54994C6.00554 3.24994 5.5222 3.09994 4.99998 3.09994C4.33331 3.09994 3.77776 3.32216 3.33331 3.7666C2.88887 4.21105 2.66665 4.7666 2.66665 5.43327C2.66665 5.82216 2.74442 6.2166 2.89998 6.6166C3.05554 7.00549 3.33331 7.45549 3.73331 7.9666C4.13331 8.4666 4.67776 9.06105 5.36665 9.74993C6.05554 10.4277 6.93331 11.2444 7.99998 12.1999Z" fill="#353535"/>
</svg>
