<svg width="135" height="107" viewBox="0 0 135 107" fill="none" xmlns="http://www.w3.org/2000/svg">
<g filter="url(#filter0_d_4_337)">
<path fill-rule="evenodd" clip-rule="evenodd" d="M42.8906 79.8361C42.8146 79.7292 42.7372 79.6237 42.6586 79.5197C42.8205 79.5925 42.9831 79.6642 43.1464 79.7347C43.0598 79.7676 42.9745 79.8014 42.8906 79.8361ZM68.4952 94.9094C69.9807 93.8088 71.0273 92.481 71.4726 91.0246C73.2224 92.5412 75.3386 93.5259 77.6182 93.5259C83.64 93.5259 88.5217 86.654 88.5217 81.2595C88.5217 80.0886 88.2917 78.9659 87.8701 77.9255C93.4486 76.2737 95.9104 72.1168 95.9104 69.1066C95.9104 66.7572 95.7275 65.5015 93.5974 64.8548C96.9098 63.5818 100.226 61.2126 102.073 57.4838C104.692 57.9589 108.207 58.0618 112.768 57.3522C123.434 55.6931 129.367 45.9461 131 41.2799C126.48 43.6562 115.868 48.3828 109.578 48.2791C106.879 48.2346 104.769 47.5841 103.179 46.7227C102.191 41.2008 99.5378 39.3764 96.3589 38.7888C102.786 35.4698 101.578 29.6422 99.5391 22.6531C96.9712 13.8488 93.0894 13.9092 87.1739 14.0013C86.6438 14.0096 86.0973 14.0181 85.534 14.0205C85.5118 5.2325 78.7313 -1.11685 69.4407 0.164614C64.3795 0.862708 59.8305 2.42136 56.2448 4.59173C53.892 1.65413 50.4654 0.0199607 46.0434 0.959632C37.7978 2.71182 34.8836 8.45608 34.4149 16.0669C32.0418 14.8452 28.8655 14.7019 24.5772 16.4062C17.1102 19.3739 17.3891 25.0581 17.6611 30.6024C17.7053 31.5024 17.7492 32.3987 17.7599 33.2792C9.90626 30.3253 5.68224 37.3927 4.35709 44.4601C2.66023 51.1532 7.24669 56.1249 13.1232 57.622C9.40399 59.8817 6.97271 63.6235 6.97271 67.8572C6.97271 78.4199 12.1973 82.5088 25.7131 80.3508C26.0202 80.3017 26.3189 80.2524 26.6096 80.2026L26.4944 80.3739C24.4638 85.8026 27.2965 94.6964 32.7548 96.1382C37.573 97.4109 41.6636 96.6462 44.2111 92.5044C47.1185 97.0271 50.4696 98.5234 57.742 98.5234C62.0668 98.5234 65.9326 97.1174 68.4952 94.9094Z" fill="url(#paint0_linear_4_337)"/>
<path d="M40.3752 45.5629C40.1426 43.3226 38.6607 38.8833 34.5935 39.0488C30.5264 39.2142 29.1109 43.4604 28.9115 45.5629" stroke="#353535" stroke-width="1.80817" stroke-linecap="round" stroke-linejoin="round"/>
<path d="M70.7046 45.5629C70.472 43.3226 68.99 38.8833 64.9229 39.0488C60.8558 39.2142 59.4402 43.4604 59.2409 45.5629" stroke="#353535" stroke-width="1.80817" stroke-linecap="round" stroke-linejoin="round"/>
<path d="M35.5815 60.6902C37.4172 63.425 43.4713 68.8946 53.0019 68.8946C62.5325 68.8946 67.9122 63.425 69.4108 60.6902" stroke="#353535" stroke-width="1.80817" stroke-linecap="round" stroke-linejoin="round"/>
<ellipse cx="22.1092" cy="53.5304" rx="8.76637" ry="2.69735" transform="rotate(-10.8831 22.1092 53.5304)" fill="#FFBDBD"/>
<ellipse cx="76.7303" cy="51.2826" rx="8.76637" ry="2.69735" transform="rotate(-10.8831 76.7303 51.2826)" fill="#FFBDBD"/>
</g>
<defs>
<filter id="filter0_d_4_337" x="0" y="0" width="135" height="106.523" filterUnits="userSpaceOnUse" color-interpolation-filters="sRGB">
<feFlood flood-opacity="0" result="BackgroundImageFix"/>
<feColorMatrix in="SourceAlpha" type="matrix" values="0 0 0 0 0 0 0 0 0 0 0 0 0 0 0 0 0 0 127 0" result="hardAlpha"/>
<feOffset dy="4"/>
<feGaussianBlur stdDeviation="2"/>
<feComposite in2="hardAlpha" operator="out"/>
<feColorMatrix type="matrix" values="0 0 0 0 0 0 0 0 0 0 0 0 0 0 0 0 0 0 0.25 0"/>
<feBlend mode="normal" in2="BackgroundImageFix" result="effect1_dropShadow_4_337"/>
<feBlend mode="normal" in="SourceGraphic" in2="effect1_dropShadow_4_337" result="shape"/>
</filter>
<linearGradient id="paint0_linear_4_337" x1="25.9927" y1="14.8683" x2="96.6171" y2="84.5635" gradientUnits="userSpaceOnUse">
<stop offset="0.475" stop-color="white"/>
<stop offset="1" stop-color="#ECF5F5"/>
</linearGradient>
</defs>
</svg>
